<?xml version="1.0" encoding="UTF-8"?>
<svg xmlns="http://www.w3.org/2000/svg" xmlns:xlink="http://www.w3.org/1999/xlink" width="10pt" height="10pt" viewBox="0 0 10 10" version="1.1">
<path style=" stroke:none;fill-rule:evenodd;fill-opacity:1;" d="M 6.1875 4.96875 C 6.113281 4.699219 5.972656 4.449219 5.761719 4.238281 C 5.109375 3.589844 4.054688 3.589844 3.402344 4.238281 L 1.320312 6.320312 C 0.671875 6.972656 0.671875 8.027344 1.320312 8.679688 C 1.972656 9.328125 3.027344 9.328125 3.679688 8.679688 L 5.277344 7.078125 L 5.417969 7.082031 C 5.585938 7.082031 5.75 7.066406 5.914062 7.035156 L 3.972656 8.972656 C 3.566406 9.378906 3.03125 9.582031 2.5 9.582031 C 1.964844 9.582031 1.433594 9.378906 1.027344 8.972656 C 0.214844 8.160156 0.214844 6.839844 1.027344 6.027344 L 3.109375 3.945312 C 3.515625 3.539062 4.050781 3.335938 4.582031 3.335938 C 5.117188 3.335938 5.648438 3.539062 6.054688 3.945312 C 6.261719 4.148438 6.414062 4.386719 6.515625 4.640625 Z M 3.8125 5.027344 C 3.886719 5.296875 4.027344 5.550781 4.238281 5.761719 C 4.890625 6.410156 5.945312 6.410156 6.597656 5.761719 L 8.679688 3.679688 C 9.328125 3.027344 9.328125 1.972656 8.679688 1.320312 C 8.027344 0.671875 6.972656 0.671875 6.320312 1.320312 L 4.722656 2.921875 L 4.582031 2.917969 C 4.414062 2.917969 4.25 2.933594 4.085938 2.964844 L 6.027344 1.027344 C 6.433594 0.621094 6.96875 0.417969 7.5 0.417969 C 8.035156 0.417969 8.566406 0.621094 8.972656 1.027344 C 9.785156 1.839844 9.785156 3.160156 8.972656 3.972656 L 6.890625 6.054688 C 6.484375 6.460938 5.949219 6.664062 5.417969 6.664062 C 4.882812 6.664062 4.351562 6.460938 3.945312 6.054688 C 3.738281 5.847656 3.585938 5.609375 3.484375 5.355469 Z M 3.8125 5.027344 "/>
</svg>
